<?xml version="1.0" standalone="no"?>
<!DOCTYPE svg PUBLIC "-//W3C//DTD SVG 20010904//EN"
 "http://www.w3.org/TR/2001/REC-SVG-20010904/DTD/svg10.dtd">
<svg version="1.0" xmlns="http://www.w3.org/2000/svg"
 width="200.000000pt" height="200.000000pt" viewBox="0 0 200.000000 200.000000"
 preserveAspectRatio="xMidYMid meet">
<metadata>
Created by potrace 1.14, written by Peter Selinger 2001-2017
</metadata>
<g transform="translate(0.000000,200.000000) scale(0.100000,-0.100000)"
fill="#000000" stroke="none">
<path d="M751 1953 c-11 -10 -22 -28 -24 -41 -3 -23 -25 -44 -37 -37 -20 12
-196 -62 -224 -94 -22 -25 -36 -27 -36 -6 0 16 -34 27 -65 21 -11 -3 -22 -5
-25 -5 -3 -1 -13 -14 -23 -30 -21 -35 -22 -90 -3 -116 15 -20 12 -61 -6 -82
-5 -7 -13 -51 -15 -97 -6 -84 -6 -85 -36 -95 -54 -19 -65 -42 -65 -138 0 -47
5 -113 13 -147 12 -60 81 -218 97 -224 4 -2 6 -7 3 -11 -2 -4 8 -23 23 -41
l28 -33 -23 -101 c-13 -55 -25 -110 -27 -121 -20 -102 -23 -114 -26 -117 -9
-11 -9 -173 -1 -206 16 -57 70 -83 178 -83 149 0 180 11 329 111 l105 71 27
-32 c15 -18 49 -53 76 -78 28 -25 59 -55 70 -67 48 -47 129 -104 164 -114 86
-24 162 -6 185 43 16 34 47 122 52 147 17 86 33 272 39 445 1 26 9 33 73 66
92 47 127 72 186 134 66 68 80 103 79 200 0 73 -13 109 -46 131 -23 15 -295
110 -340 120 -27 5 -30 10 -33 57 -3 45 -10 107 -18 147 -3 14 -7 43 -11 65
-3 22 -10 58 -16 80 -7 22 -12 42 -13 45 -20 72 -31 93 -67 128 -23 23 -47 43
-52 43 -52 6 -113 5 -123 -4 -7 -5 -13 -6 -13 -2 0 3 -16 -3 -35 -15 -34 -21
-37 -21 -70 -6 -19 9 -55 19 -81 21 -55 6 -53 4 -57 35 -7 47 -75 67 -116 33z"/>
</g>
</svg>
